<svg id="visual" viewBox="0 0 900 600" width="900" height="600" xmlns="http://www.w3.org/2000/svg" xmlns:xlink="http://www.w3.org/1999/xlink" version="1.1"><rect x="0" y="0" width="900" height="600" fill="#000e19"></rect><path d="M0 431L21.5 432.5C43 434 86 437 128.8 431.5C171.7 426 214.3 412 257.2 408.5C300 405 343 412 385.8 410.8C428.7 409.7 471.3 400.3 514.2 393.5C557 386.7 600 382.3 642.8 376.3C685.7 370.3 728.3 362.7 771.2 360.5C814 358.3 857 361.7 878.5 363.3L900 365L900 601L878.5 601C857 601 814 601 771.2 601C728.3 601 685.7 601 642.8 601C600 601 557 601 514.2 601C471.3 601 428.7 601 385.8 601C343 601 300 601 257.2 601C214.3 601 171.7 601 128.8 601C86 601 43 601 21.5 601L0 601Z" fill="#715df2"></path><path d="M0 418L21.5 418.7C43 419.3 86 420.7 128.8 421.2C171.7 421.7 214.3 421.3 257.2 422C300 422.7 343 424.3 385.8 430.5C428.7 436.7 471.3 447.3 514.2 452.3C557 457.3 600 456.7 642.8 448C685.7 439.3 728.3 422.7 771.2 418.2C814 413.7 857 421.3 878.5 425.2L900 429L900 601L878.5 601C857 601 814 601 771.2 601C728.3 601 685.7 601 642.8 601C600 601 557 601 514.2 601C471.3 601 428.7 601 385.8 601C343 601 300 601 257.2 601C214.3 601 171.7 601 128.8 601C86 601 43 601 21.5 601L0 601Z" fill="#6c50f6"></path><path d="M0 478L21.5 477.8C43 477.7 86 477.3 128.8 476.7C171.7 476 214.3 475 257.2 475.3C300 475.7 343 477.3 385.8 474.3C428.7 471.3 471.3 463.7 514.2 464.5C557 465.3 600 474.7 642.8 477.2C685.7 479.7 728.3 475.3 771.2 475C814 474.7 857 478.3 878.5 480.2L900 482L900 601L878.5 601C857 601 814 601 771.2 601C728.3 601 685.7 601 642.8 601C600 601 557 601 514.2 601C471.3 601 428.7 601 385.8 601C343 601 300 601 257.2 601C214.3 601 171.7 601 128.8 601C86 601 43 601 21.5 601L0 601Z" fill="#6940fa"></path><path d="M0 502L21.5 503.5C43 505 86 508 128.8 510.8C171.7 513.7 214.3 516.3 257.2 518C300 519.7 343 520.3 385.8 515.8C428.7 511.3 471.3 501.7 514.2 494.8C557 488 600 484 642.8 484.5C685.7 485 728.3 490 771.2 493C814 496 857 497 878.5 497.5L900 498L900 601L878.5 601C857 601 814 601 771.2 601C728.3 601 685.7 601 642.8 601C600 601 557 601 514.2 601C471.3 601 428.7 601 385.8 601C343 601 300 601 257.2 601C214.3 601 171.7 601 128.8 601C86 601 43 601 21.5 601L0 601Z" fill="#672bfd"></path><path d="M0 531L21.5 535.5C43 540 86 549 128.8 554.2C171.7 559.3 214.3 560.7 257.2 560.5C300 560.3 343 558.7 385.8 557.2C428.7 555.7 471.3 554.3 514.2 556.2C557 558 600 563 642.8 566.5C685.7 570 728.3 572 771.2 568.7C814 565.3 857 556.7 878.5 552.3L900 548L900 601L878.5 601C857 601 814 601 771.2 601C728.3 601 685.7 601 642.8 601C600 601 557 601 514.2 601C471.3 601 428.7 601 385.8 601C343 601 300 601 257.2 601C214.3 601 171.7 601 128.8 601C86 601 43 601 21.5 601L0 601Z" fill="#6600ff"></path></svg>