<svg id="visual" viewBox="0 0 900 600" width="900" height="600" xmlns="http://www.w3.org/2000/svg" xmlns:xlink="http://www.w3.org/1999/xlink" version="1.1"><rect x="0" y="0" width="900" height="600" fill="#00070c"></rect><path d="M0 295L21.5 287.5C43 280 86 265 128.8 242.5C171.7 220 214.3 190 257.2 186.3C300 182.7 343 205.3 385.8 225.2C428.7 245 471.3 262 514.2 265.7C557 269.3 600 259.7 642.8 246.2C685.7 232.7 728.3 215.3 771.2 201C814 186.7 857 175.3 878.5 169.7L900 164L900 601L878.5 601C857 601 814 601 771.2 601C728.3 601 685.7 601 642.8 601C600 601 557 601 514.2 601C471.3 601 428.7 601 385.8 601C343 601 300 601 257.2 601C214.3 601 171.7 601 128.8 601C86 601 43 601 21.5 601L0 601Z" fill="#9a0e2c"></path><path d="M0 281L21.5 293.2C43 305.3 86 329.7 128.8 332.7C171.7 335.7 214.3 317.3 257.2 289.8C300 262.3 343 225.7 385.8 222.5C428.7 219.3 471.3 249.7 514.2 260.2C557 270.7 600 261.3 642.8 255C685.7 248.7 728.3 245.3 771.2 239.7C814 234 857 226 878.5 222L900 218L900 601L878.5 601C857 601 814 601 771.2 601C728.3 601 685.7 601 642.8 601C600 601 557 601 514.2 601C471.3 601 428.7 601 385.8 601C343 601 300 601 257.2 601C214.3 601 171.7 601 128.8 601C86 601 43 601 21.5 601L0 601Z" fill="#880b25"></path><path d="M0 389L21.5 390.5C43 392 86 395 128.8 377.5C171.7 360 214.3 322 257.2 305.3C300 288.7 343 293.3 385.8 312C428.7 330.7 471.3 363.3 514.2 377.5C557 391.7 600 387.3 642.8 385.2C685.7 383 728.3 383 771.2 373.5C814 364 857 345 878.5 335.5L900 326L900 601L878.5 601C857 601 814 601 771.2 601C728.3 601 685.7 601 642.8 601C600 601 557 601 514.2 601C471.3 601 428.7 601 385.8 601C343 601 300 601 257.2 601C214.3 601 171.7 601 128.8 601C86 601 43 601 21.5 601L0 601Z" fill="#76081e"></path><path d="M0 395L21.5 404.5C43 414 86 433 128.8 437.3C171.7 441.7 214.3 431.3 257.2 431.7C300 432 343 443 385.8 453C428.7 463 471.3 472 514.2 475.8C557 479.7 600 478.3 642.8 476.5C685.7 474.7 728.3 472.3 771.2 466.8C814 461.3 857 452.7 878.5 448.3L900 444L900 601L878.5 601C857 601 814 601 771.2 601C728.3 601 685.7 601 642.8 601C600 601 557 601 514.2 601C471.3 601 428.7 601 385.8 601C343 601 300 601 257.2 601C214.3 601 171.7 601 128.8 601C86 601 43 601 21.5 601L0 601Z" fill="#650517"></path><path d="M0 474L21.5 476C43 478 86 482 128.8 491.5C171.7 501 214.3 516 257.2 521.3C300 526.7 343 522.3 385.8 522.5C428.7 522.7 471.3 527.3 514.2 529C557 530.7 600 529.3 642.8 523.3C685.7 517.3 728.3 506.7 771.2 509.7C814 512.7 857 529.3 878.5 537.7L900 546L900 601L878.5 601C857 601 814 601 771.2 601C728.3 601 685.7 601 642.8 601C600 601 557 601 514.2 601C471.3 601 428.7 601 385.8 601C343 601 300 601 257.2 601C214.3 601 171.7 601 128.8 601C86 601 43 601 21.5 601L0 601Z" fill="#540310"></path></svg>