<svg id="visual" viewBox="0 0 900 600" width="900" height="600" xmlns="http://www.w3.org/2000/svg" xmlns:xlink="http://www.w3.org/1999/xlink" version="1.1"><path d="M0 91L13.7 96C27.3 101 54.7 111 82 130C109.3 149 136.7 177 163.8 194C191 211 218 217 245.2 213C272.3 209 299.7 195 327 187C354.3 179 381.7 177 409 186C436.3 195 463.7 215 491 205C518.3 195 545.7 155 573 160C600.3 165 627.7 215 654.8 221C682 227 709 189 736.2 171C763.3 153 790.7 155 818 162C845.3 169 872.7 181 886.3 187L900 193L900 0L886.3 0C872.7 0 845.3 0 818 0C790.7 0 763.3 0 736.2 0C709 0 682 0 654.8 0C627.7 0 600.3 0 573 0C545.7 0 518.3 0 491 0C463.7 0 436.3 0 409 0C381.7 0 354.3 0 327 0C299.7 0 272.3 0 245.2 0C218 0 191 0 163.8 0C136.7 0 109.3 0 82 0C54.7 0 27.3 0 13.7 0L0 0Z" fill="#6198ff"></path><path d="M0 229L13.7 221C27.3 213 54.7 197 82 212C109.3 227 136.7 273 163.8 293C191 313 218 307 245.2 298C272.3 289 299.7 277 327 271C354.3 265 381.7 265 409 271C436.3 277 463.7 289 491 281C518.3 273 545.7 245 573 251C600.3 257 627.7 297 654.8 306C682 315 709 293 736.2 277C763.3 261 790.7 251 818 254C845.3 257 872.7 273 886.3 281L900 289L900 191L886.3 185C872.7 179 845.3 167 818 160C790.7 153 763.3 151 736.2 169C709 187 682 225 654.8 219C627.7 213 600.3 163 573 158C545.7 153 518.3 193 491 203C463.7 213 436.3 193 409 184C381.7 175 354.3 177 327 185C299.7 193 272.3 207 245.2 211C218 215 191 209 163.8 192C136.7 175 109.3 147 82 128C54.7 109 27.3 99 13.7 94L0 89Z" fill="#3c80ff"></path><path d="M0 427L13.7 430C27.3 433 54.7 439 82 443C109.3 447 136.7 449 163.8 444C191 439 218 427 245.2 423C272.3 419 299.7 423 327 419C354.3 415 381.7 403 409 403C436.3 403 463.7 415 491 417C518.3 419 545.7 411 573 413C600.3 415 627.7 427 654.8 428C682 429 709 419 736.2 416C763.3 413 790.7 417 818 424C845.3 431 872.7 441 886.3 446L900 451L900 287L886.3 279C872.7 271 845.3 255 818 252C790.7 249 763.3 259 736.2 275C709 291 682 313 654.8 304C627.7 295 600.3 255 573 249C545.7 243 518.3 271 491 279C463.7 287 436.3 275 409 269C381.7 263 354.3 263 327 269C299.7 275 272.3 287 245.2 296C218 305 191 311 163.8 291C136.7 271 109.3 225 82 210C54.7 195 27.3 211 13.7 219L0 227Z" fill="#0066ff"></path><path d="M0 505L13.7 508C27.3 511 54.7 517 82 525C109.3 533 136.7 543 163.8 544C191 545 218 537 245.2 530C272.3 523 299.7 517 327 514C354.3 511 381.7 511 409 517C436.3 523 463.7 535 491 534C518.3 533 545.7 519 573 512C600.3 505 627.7 505 654.8 505C682 505 709 505 736.2 511C763.3 517 790.7 529 818 535C845.3 541 872.7 541 886.3 541L900 541L900 449L886.3 444C872.7 439 845.3 429 818 422C790.7 415 763.3 411 736.2 414C709 417 682 427 654.8 426C627.7 425 600.3 413 573 411C545.7 409 518.3 417 491 415C463.7 413 436.3 401 409 401C381.7 401 354.3 413 327 417C299.7 421 272.3 417 245.2 421C218 425 191 437 163.8 442C136.7 447 109.3 445 82 441C54.7 437 27.3 431 13.7 428L0 425Z" fill="#0059dd"></path><path d="M0 601L13.7 601C27.3 601 54.7 601 82 601C109.3 601 136.7 601 163.8 601C191 601 218 601 245.2 601C272.3 601 299.7 601 327 601C354.3 601 381.7 601 409 601C436.3 601 463.7 601 491 601C518.3 601 545.7 601 573 601C600.3 601 627.7 601 654.8 601C682 601 709 601 736.2 601C763.3 601 790.7 601 818 601C845.3 601 872.7 601 886.3 601L900 601L900 539L886.3 539C872.7 539 845.3 539 818 533C790.7 527 763.3 515 736.2 509C709 503 682 503 654.8 503C627.7 503 600.3 503 573 510C545.7 517 518.3 531 491 532C463.7 533 436.3 521 409 515C381.7 509 354.3 509 327 512C299.7 515 272.3 521 245.2 528C218 535 191 543 163.8 542C136.7 541 109.3 531 82 523C54.7 515 27.3 509 13.7 506L0 503Z" fill="#004cbb"></path></svg>